<svg id="SvgjsSvg1136" width="550" height="550" xmlns="http://www.w3.org/2000/svg" version="1.1" xmlns:xlink="http://www.w3.org/1999/xlink" xmlns:svgjs="http://svgjs.com/svgjs"><defs id="SvgjsDefs1137"></defs><g id="SvgjsG1138"><svg xmlns="http://www.w3.org/2000/svg" xmlns:xlink="http://www.w3.org/1999/xlink" viewBox="0 0 1158.61 1403.27" width="550" height="550"><defs><linearGradient id="a" x1="1130.38" x2="977.58" y1="1203.03" y2="1267.54" gradientUnits="userSpaceOnUse"><stop offset=".22" stop-color="#ff8239" class="stopColorff8239 svgShape"></stop><stop offset="1" stop-color="#e63333" class="stopColore63333 svgShape"></stop></linearGradient><linearGradient id="d" x1="1028.96" x2="906.72" y1="1276.23" y2="1276.23" xlink:href="#a"></linearGradient><linearGradient id="b" x1="1137.99" x2="1104.04" y1="1218.63" y2="1330.68" gradientUnits="userSpaceOnUse"><stop offset=".17" stop-color="#ffe3b9" class="stopColorffe3b9 svgShape"></stop><stop offset="1" stop-color="#ffbb8a" class="stopColorffbb8a svgShape"></stop></linearGradient><linearGradient id="e" x1="362.38" x2="528.76" y1="1149.05" y2="1240.73" xlink:href="#a"></linearGradient><linearGradient id="f" x1="459.25" x2="578.1" y1="1265.43" y2="1329.95" xlink:href="#a"></linearGradient><linearGradient id="g" x1="809.65" x2="819.85" y1="981.53" y2="1386.12" xlink:href="#a"></linearGradient><linearGradient id="h" x1="747.17" x2="750.56" y1="1052.4" y2="1371.59" xlink:href="#b"></linearGradient><linearGradient id="i" x1="802.19" x2="781.82" y1="219.09" y2="412.64" xlink:href="#a"></linearGradient><linearGradient id="c" x1="773.47" x2="804.03" y1="35.78" y2="173.3" gradientUnits="userSpaceOnUse"><stop offset=".2" stop-color="#801f32" class="stopColor801f32 svgShape"></stop><stop offset="1" stop-color="#681150" class="stopColor681150 svgShape"></stop></linearGradient><linearGradient id="j" x1="811.18" x2="780.62" y1="141" y2="416.04" xlink:href="#b"></linearGradient><linearGradient id="k" x1="1640.77" x2="1620.4" y1="63.89" y2="257.44" gradientTransform="matrix(-.89 .45 .45 .89 1946.29 -484.04)" xlink:href="#a"></linearGradient><linearGradient id="l" x1="1612.04" x2="1642.61" y1="-119.42" y2="18.1" gradientTransform="matrix(-.89 .45 .45 .89 1946.29 -484.04)" xlink:href="#c"></linearGradient><linearGradient id="m" x1="1649.75" x2="1619.19" y1="-14.21" y2="260.85" gradientTransform="matrix(-.89 .45 .45 .89 1946.29 -484.04)" xlink:href="#b"></linearGradient><linearGradient id="n" x1="723.44" x2="754" y1="671" y2="844.18" xlink:href="#b"></linearGradient><linearGradient id="o" x1="660.48" x2="726.7" y1="447.57" y2="686.96" xlink:href="#a"></linearGradient><linearGradient id="p" x1="615.49" x2="588.33" y1="941.45" y2="1036.53" xlink:href="#a"></linearGradient><linearGradient id="q" x1="617.06" x2="701.95" y1="861.3" y2="779.81" xlink:href="#c"></linearGradient><linearGradient id="r" x1="975.33" x2="954.96" y1="999.75" y2="1088.03" xlink:href="#c"></linearGradient></defs><g data-name="Layer 2" fill="#000000" class="color000 svgShape"><g data-name="Layer 1" fill="#000000" class="color000 svgShape"><path fill="url(#a)" d="M1055.38,1379.94c-12.58,7.08-22.41,11.92-26.44,13.14-17,5.09-132.43-66.21-132.43-66.21l5.1-173.18c0-5.09,117.15-45.84,144.34-40.75s45.85,81.5,50.94,100.19a28.88,28.88,0,0,0,3.46,7.44c12.07,20,48.7,51.44,57.66,72.32C1165.8,1311.08,1096.18,1357,1055.38,1379.94Z"></path><path fill="url(#d)" d="M854.09,1403.27s40.74-273.35,123.94-253c77.57,19,11.88,191.86,11.88,191.86s49.24,6.79,57.73,61.12Z"></path><path fill="url(#b)" d="M1055.38,1379.94c5.29-43,16.91-107.72,41.51-160l3.46.66c12.07,20,48.7,51.44,57.66,72.32C1165.8,1311.08,1096.18,1357,1055.38,1379.94Z"></path><path fill="url(#e)" d="M589.23,1102.76c-5.09,0-103.57-44.15-122.24-32.26s-73,107-79.8,129,76.4,176.57,76.4,176.57l117.15-8.49Z"></path><path fill="url(#f)" d="M574,1206.32s-39.05-54.33-62.82-56-1.7,190.15-1.7,190.15-67.91,8.49-64.51,62.82H614.7Z"></path><path fill="url(#g)" d="M1005.61,1079.84c2.55,10.18-19.09,47.77-27.35,47.77s-63.66-31.22-68.15-52.87c-3.15-15.17,19.36-60.35,33.11-86,5.91-11,10.19-18.39,10.19-18.39L877,955.05s50.93,191,45.84,231.75S883,1403.27,883,1403.27H614.7s-53.48-191-53.48-219,30.56-173.17,30.56-173.17l40.74-149,213.93-31.83S1059.76,878,1061,893.93c.82,10-31.83,73.24-56,118.57-14.16,26.54-25.46,47-25.46,47S1003.07,1069.65,1005.61,1079.84Z"></path><path fill="url(#h)" d="M828.62,1403.27H679.54c-92.86-201.9-17.53-399.68,71-443.13C851.54,988.72,896.21,1234,828.62,1403.27Z"></path><path fill="#39cff5" d="M485.66,39.94c-64.51-20.38-421,125.63-455,159.59S.09,365.91.09,365.91l125.64,20.38S135.92,321.77,149.5,298,339.65,213.11,377,209.72s166.38,309,159.59,339.56-326,312.39-343,353.14S248,1231.79,248,1231.79l48.39-1.7s-.85-259.76,12.73-286.93S682.61,674.91,713.17,586.63,550.18,60.31,485.66,39.94Z" class="color39cff5 svgShape"></path><polygon fill="#39cff5" points="247.97 1255.56 222.51 1347.24 330.74 1347.24 298.91 1256.83 247.97 1255.56" class="color39cff5 svgShape"></polygon><path fill="url(#i)" d="M879.55,481.36,757,446.32s-39.43-165-56.39-245.7c-4.78-22.77-7.79-38.81-7.59-42.59C694,141,747,2.18,757.31,0s129,85.11,142.62,117.15c3.82,9,7.48,26.89,9.73,52.1C915.46,233.77,912.2,346.29,879.55,481.36Z"></path><path fill="url(#c)" d="M909.66,169.29l-42.84-3.72L744.58,186s-25.67,8.55-44,14.67c-4.78-22.77-7.79-38.81-7.59-42.59C694,141,747,2.18,757.31,0s129,85.11,142.62,117.15C903.75,126.2,907.41,144.08,909.66,169.29Z"></path><path fill="url(#j)" d="M782.57,421.83c-27.46-115.42-55.81-239.78-58.78-262.51,3.92-17.6,29.13-84.3,44.87-118.87,34.28,23,95.18,72.47,103.22,88.85,8.09,19.07,22.75,138.42-14.94,313.81Z"></path><path fill="url(#k)" d="M556.18,577l93.88-86.21s-38.64-165.17-59.63-244.94c-5.91-22.5-10.41-38.19-12.28-41.47C569.69,189.5,460.07,89.17,449.92,91.87s-77.24,133.87-75.05,168.61c.62,9.77,5.35,27.4,14.64,50.94C413.19,371.68,466.5,470.82,556.18,577Z"></path><path fill="url(#l)" d="M389.51,311.42l36.63-22.5,118.42-36.53s26.79-3.85,45.87-6.57c-5.91-22.5-10.41-38.19-12.28-41.47C569.69,189.5,460.07,89.17,449.92,91.87s-77.24,133.87-75.05,168.61C375.49,270.25,380.22,287.88,389.51,311.42Z"></path><path fill="url(#m)" d="M616.23,480.31c-27.13-115.5-57.48-239.39-65-261-11.4-14-63.8-62.33-93.36-86.19-20.33,36-52.65,107.42-52.49,125.67,1.29,20.67,41.64,134,153.88,273.89Z"></path><path fill="url(#n)" d="M1101.12,606.15s-4.38,5.15-12.33,14.11c-45.74,52-209.34,231.65-313.65,268.58C630.89,894.69,458.33,815.49,385.29,778c-22.41-11.46-35.45-19-35.45-19S517.92,494.1,551,471.18,787.87,412.6,828.62,417.7,1101.12,606.15,1101.12,606.15Z"></path><path fill="url(#o)" d="M1101.12,606.15s-4.38,5.15-12.33,14.11L831.17,649.45l-73.86-56-89.13,25.47L632.52,708,385.29,778c-22.41-11.46-35.45-19-35.45-19S517.92,494.1,551,471.18,787.87,412.6,828.62,417.7,1101.12,606.15,1101.12,606.15Z"></path><path fill="#211628" d="M658 620.16c-1.57 14.15 48.39 34.38 63.67 31.83s48.39-50.93 40.75-61.12S659.26 608.7 658 620.16zM796.79 513.2c-42.8 18.72-11.46 109.51 30.56 98S837.53 495.37 796.79 513.2zM755.75 719.48c-4.38 0-9.51-1.41-15.82-4.28a5.09 5.09 0 114.21-9.27c6.91 3.14 11.63 4.08 14.44 2.82 4.32-1.91 7-10.28 10.72-21.86 2-6.31 4.32-13.46 7.47-21.48 4.37-11.12 11.18-14.18 16.13-14.78 20-2.53 44.76 31.46 47.51 35.34a5.09 5.09 0 11-8.3 5.9c-9.06-12.72-27.31-32.4-38-31.13-1.19.14-4.82.59-7.88 8.39S781 683.83 779 690c-4.53 14.11-7.8 24.31-16.3 28.07A16.83 16.83 0 01755.75 719.48zM570.13 633.32l-.32 22s76 5 75.88-14.52S570.13 633.32 570.13 633.32zM635.17 593c-15.63 19.35-62.7 24.07-62.7 24.07l-9.33-12.16c27.74-3 51-19.11 64.54-26.68z" class="color211628 svgShape"></path><polygon fill="#211628" points="764.95 448.26 763.68 462.26 819.71 473.72 815.89 454.62 764.95 448.26" class="color211628 svgShape"></polygon><circle cx="798.48" cy="579.84" r="11.46" fill="#ffffff" class="colorfff svgShape"></circle><path fill="url(#p)" d="M743.31,795.88c-2.55,3.82-43.3,12.73-43.3,12.73s2.55,36.93-7.64,42S647.8,857,647.8,857s-5.7,27.51-13.39,61.94c-12.84,57.55-31.17,134.62-37.54,135.43-10.19,1.27-81.49-40.59-81.49-63.67,0-8.71,22.56-56.58,46.86-104,25.26-49.41,52.36-98.36,57.55-102.28C630,776.78,731.84,759,739.49,764.05S745.85,792.06,743.31,795.88Z"></path><path fill="url(#q)" d="M743.31,795.88c-2.55,3.82-43.3,12.73-43.3,12.73s2.55,36.93-7.64,42S647.8,857,647.8,857s-5.7,27.51-13.39,61.94c-19-5-55.47-16.25-72.17-32.24,25.26-49.41,52.36-98.36,57.55-102.28C630,776.78,731.84,759,739.49,764.05S745.85,792.06,743.31,795.88Z"></path><path fill="url(#r)" d="M978.26,1127.61c-8.3,0-63.66-31.22-68.15-52.87-3.15-15.17,19.36-60.35,33.11-86,24.19,3.92,47.57,15.58,61.73,23.78-14.16,26.54-25.46,47-25.46,47s23.58,10.19,26.12,20.38S986.52,1127.61,978.26,1127.61Z"></path></g></g></svg></g></svg>