<svg id="SvgjsSvg1023" width="256" height="256" xmlns="http://www.w3.org/2000/svg" version="1.1" xmlns:xlink="http://www.w3.org/1999/xlink" xmlns:svgjs="http://svgjs.com/svgjs"><defs id="SvgjsDefs1024"></defs><g id="SvgjsG1025"><svg xmlns="http://www.w3.org/2000/svg" enable-background="new 0 0 128 128" viewBox="0 0 128 128" width="256" height="256"><circle cx="64" cy="64" r="64" fill="#1597ff" class="color1597ff svgShape"></circle><path fill="#f85863" d="M64,128c18.2,0,34.6-7.6,46.3-19.8C103.6,94.8,88.8,85.7,64,85.7c-24.8,0-39.6,9.1-46.3,22.5C29.4,120.4,45.8,128,64,128z" class="colorf85863 svgShape"></path><path fill="#ffffff" d="M52.6,71.6v17.1c0,6.1,5,11.1,11.1,11.1s11.1-5,11.1-11.1V71.6H52.6z" class="colorfff svgShape"></path><path fill="#01277b" d="M52.6,73.6v6.6c3.1,2.9,6.8,5,11.1,6.2c4.3,1.2,8,1,11.1-0.2V73.6H52.6z" class="color01277b svgShape"></path><circle cx="42.3" cy="61.3" r="6.3" fill="#ffffff" class="colorfff svgShape"></circle><circle cx="85.1" cy="61.3" r="6.3" fill="#ffffff" class="colorfff svgShape"></circle><ellipse cx="63.6" cy="42.9" fill="#01277b" rx="29" ry="29.7" class="color01277b svgShape"></ellipse><ellipse cx="63.7" cy="56" fill="#ffffff" rx="22" ry="27.5" class="colorfff svgShape"></ellipse><ellipse cx="59.9" cy="27.9" fill="#01277b" rx="17" ry="13.4" transform="rotate(-5.82 59.942 27.947)" class="color01277b svgShape"></ellipse><ellipse cx="81.8" cy="29.1" fill="#01277b" rx="13.5" ry="10" transform="rotate(-6.91 81.821 29.147)" class="color01277b svgShape"></ellipse><circle cx="54.2" cy="52.2" r="2.1" fill="#01277b" class="color01277b svgShape"></circle><circle cx="73.2" cy="52.2" r="2.1" fill="#01277b" class="color01277b svgShape"></circle><path fill="#01277b" d="M73.2,62c0,5.3-4.3,9.5-9.5,9.5c-5.3,0-9.5-4.3-9.5-9.5H73.2z" class="color01277b svgShape"></path></svg></g></svg>